<?xml version="1.0" encoding="utf-8"?>
<!-- Generator: Adobe Illustrator 16.0.0, SVG Export Plug-In . SVG Version: 6.00 Build 0)  -->
<!DOCTYPE svg PUBLIC "-//W3C//DTD SVG 1.1//EN" "http://www.w3.org/Graphics/SVG/1.1/DTD/svg11.dtd">
<svg version="1.1" id="Camada_1" xmlns="http://www.w3.org/2000/svg" xmlns:xlink="http://www.w3.org/1999/xlink" x="0px" y="0px"
	 width="417px" height="510px" viewBox="99.5 63.5 417 510" enable-background="new 99.5 63.5 417 510" xml:space="preserve">
<path fill="#030303" d="M273.36,69.94c4.761,4.76,2.721,10.88,2.04,16.32c-0.68,4.76,0.681,10.199-2.04,13.6
	c-2.72,4.08-8.159-0.68-12.92-0.68c-12.239,0-11.56,0-6.12-10.881c3.4-7.479,10.2-11.56,14.28-18.359
	C269.96,69.94,271.32,69.94,273.36,69.94z"/>
<path d="M304.64,232.46c0-18.359,4.08-34.68,6.12-51.68c0.68-10.88,0.68-22.44,0.68-33.32c0-8.16,2.04-15.64,4.76-23.12
	c7.48-17,25.16-18.359,41.48-10.199c14.28,7.479,23.12,20.399,29.92,34.68c8.84,17.68,20.4,35.36,21.76,55.08
	c2.04,29.24-2.72,57.8-29.92,75.479c-14.28,9.521-31.96,12.921-48.96,4.761c-7.479-3.4-10.88-10.88-14.96-17
	C308.039,256.26,304.64,244.02,304.64,232.46z"/>
<path fill="#010101" d="M135.32,231.1c1.36-9.521,0.681-21.761,9.521-30.601c2.72-2.04,4.76-6.12,8.16-4.76
	c4.08,1.36,2.72,4.76,3.399,8.16c1.36,8.84,3.4,17,8.16,24.479c1.36,2.04,2.04,4.08,0.681,6.12c-1.36,2.04-3.4,0-4.761-0.68
	c-7.479-1.36-14.96-4.08-21.08,4.08c-0.68,1.36-2.72,1.36-3.399,0C134.64,236.54,135.32,234.5,135.32,231.1z"/>
<path fill="#020202" d="M342.72,102.58c-6.8,1.36-9.521-1.359-9.521-8.16c0-5.439-1.359-10.88-0.68-16.319
	c1.36-6.801,4.08-8.16,9.52-3.4c4.08,3.4,6.12,7.48,8.841,12.24c2.72,4.08,4.76,8.84,7.479,12.92c0.68,1.36,2.04,2.72,0.68,4.08
	c-1.359,1.359-2.72,1.359-4.079,0.68C350.88,103.94,346.8,101.9,342.72,102.58z"/>
<path fill="#020202" d="M446.079,199.14c1.36,1.359,2.721,2.04,4.08,3.399c6.801,6.8,9.521,16.32,14.28,24.48
	c2.04,3.399-0.68,4.76-3.4,4.08c-6.119-1.36-11.56-1.36-17,0c-2.72,0.68-5.439-0.681-4.76-3.4c0.681-8.16,2.04-16.32,3.4-23.8
	C441.32,201.18,442.68,199.14,446.079,199.14z"/>
<path d="M286.28,176.7c-1.359-16.32-4.76-31.96-8.84-47.6c-3.399-12.92-10.88-17.681-10.88-17.681
	c-3.399-3.399-7.479-5.439-12.24-4.08c-8.84,2.721-17,7.48-24.479,12.921c-13.6,9.52-23.8,22.439-34,35.359
	c-6.12,7.48-10.88,17.68-11.561,27.88c-1.359,21.08-0.68,41.48,8.841,61.2c6.8,14.96,19.72,24.48,33.319,31.96
	c6.801,4.08,15.641,1.36,23.12,0c14.96-1.359,31.28-8.84,34.681-30.6c0.68-3.4,0.68-6.12,0.68-9.521
	C289,216.14,288.32,196.42,286.28,176.7z"/>
<path d="M204,295.7c-6.8-12.24-17-23.12-24.48-34.68c-4.08-6.8-9.52-11.561-14.96-15.641c-6.12-4.76-12.24-4.76-18.359-0.68
	c-5.44,2.72-9.521,7.48-12.921,12.24c-14.96,23.12-26.52,48.28-29.239,76.84c0,2.04,0,12.92,0.68,14.96
	c0.68,6.12,2.72,11.561,4.76,17c6.8,21.76,21.08,34,44.2,36.04c5.44,1.36,10.88,0.68,17,0c0,0,5.44-0.68,9.521-4.76l0,0
	c13.6-7.48,20.399-21.08,28.56-33.32c3.4-4.76,5.44-10.2,6.8-15.64C216.24,329.02,212.84,312.02,204,295.7z"/>
<path d="M505.92,369.82c0.68-2.72,2.04-5.44,2.72-8.16c8.84-34-2.04-51.68-2.04-51.68l0,0c0-0.68-0.68-1.36-0.68-1.36
	c-4.08-7.479-7.48-16.319-10.881-24.479c-5.439-12.92-12.239-25.16-22.439-34c-16.32-14.96-34-17.681-46.92,4.76
	c-2.72,4.08-4.76,8.16-7.48,12.24c-11.56,19.04-17.68,40.12-27.88,59.84c-14.96,27.88,4.76,79.56,34.681,87.04
	c21.079,4.76,39.439,2.04,55.76-10.88c6.12-4.761,12.24-10.2,16.319-16.32C499.8,383.42,503.199,377.98,505.92,369.82z"/>
<path d="M448.8,455.5c-3.4-4.079-15.641-21.079-16.32-21.76c-6.12-6.12-11.56-9.52-16.32-10.88c-6.8-2.72-12.92-6.12-18.359-10.88
	c-3.4-4.08-7.48-7.48-10.2-12.24c-9.521-14.28-18.36-29.24-27.2-43.52c-6.12-10.2-12.92-18.36-22.439-25.16
	c-18.36-11.561-38.08-17-59.16-10.2c-19.04,6.12-35.36,17.68-47.6,34c-13.601,17.68-28.561,34.68-43.521,51
	c-12.24,12.92-26.52,23.8-37.4,38.76c-14.279,19.721-16.319,40.801-13.6,63.24c1.36,14.96,7.48,27.88,18.36,38.08
	c10.2,9.521,23.8,14.96,36.72,19.72c4.76,1.36,10.2,3.4,14.96,3.4l0,0h0.68c0.681,0,17-0.68,26.521-3.4
	c4.76-0.68,9.52-2.04,13.6-4.76l0,0l0,0c12.24-8.84,25.16-10.88,39.44-12.92c21.079-2.72,40.8,0,59.84,6.12
	c27.2,8.16,53.04,12.92,79.56-1.36c16.32-8.84,28.561-20.399,31.96-38.08C463.079,494.26,461.72,473.18,448.8,455.5z"/>
</svg>
